PathFileType	4	(X/Y/Z)	Kaydara																																																																																																																									
DataRate	CameraRate	NumFrames	NumMarkers	Units	OrigDataRate	OrigDataStartFrame	OrigNumFrames																																																																																																																					
30	30	9	41	mm	30	101	141																																																																																																																					
Frame#	Time	SALE_LFHD			SALE_RFHD			SALE_LBHD			SALE_RBHD			SALE_LFTShould			SALE_RFTShould			SALE_LRRShould			SALE_RRRShould			SALE_T10			SALE_STRN			SALE_TRUN			SALE_LSHO			SALE_LUPA			SALE_LELB			SALE_LFRM			SALE_LWRA			SALE_LWRB			SALE_LFIN			SALE_RSHO			SALE_RUPA			SALE_RELB			SALE_RFRM			SALE_RWRB			SALE_RFIN			SALE_LFWT			SALE_RFWT			SALE_LBWT			SALE_RBWT			SALE_LTHI			SALE_LKNE			SALE_RWRA			SALE_LSHN			SALE_LANK			SALE_LHEE			SALE_LTOE			SALE_RTHI			SALE_RKNE			SALE_RSHN			SALE_RANK			SALE_RHEE			SALE_RTOE		
		X1	Y1	Z1	X2	Y2	Z2	X3	Y3	Z3	X4	Y4	Z4	X5	Y5	Z5	X6	Y6	Z6	X7	Y7	Z7	X8	Y8	Z8	X9	Y9	Z9	X10	Y10	Z10	X11	Y11	Z11	X12	Y12	Z12	X13	Y13	Z13	X14	Y14	Z14	X15	Y15	Z15	X16	Y16	Z16	X17	Y17	Z17	X18	Y18	Z18	X19	Y19	Z19	X20	Y20	Z20	X21	Y21	Z21	X22	Y22	Z22	X23	Y23	Z23	X24	Y24	Z24	X25	Y25	Z25	X26	Y26	Z26	X27	Y27	Z27	X28	Y28	Z28	X29	Y29	Z29	X30	Y30	Z30	X31	Y31	Z31	X32	Y32	Z32	X33	Y33	Z33	X34	Y34	Z34	X35	Y35	Z35	X36	Y36	Z36	X37	Y37	Z37	X38	Y38	Z38	X39	Y39	Z39	X40	Y40	Z40	X41	Y41	Z41
																																																																																																																												
71	3.333	193.54975	1614.60129	-978.48663	60.10358	1611.4502	-982.07062	193.03276	1594.22287	-1111.55823	65.61557	1589.97253	-1108.97743	202.33732	1355.83542	-1009.17412	63.61317	1351.79276	-1016.49666	205.61649	1409.08783	-1126.77513	56.62811	1413.33588	-1126.44211	133.61418	1256.89552	-1193.3017	126.89022	1280.87646	-962.36679	122.89417	1192.1566	-925.67108	320.58907	1388.41309	-1070.13298	379.20132	1179.76059	-1041.50238	378.01666	1066.57059	-1030.91896	407.02866	994.83002	-940.82161	347.49683	932.49077	-800.15312	414.12582	901.79756	-825.58746	411.70197	903.65593	-762.02766	-38.02172	1383.00308	-1088.31146	-66.05857	1166.78085	-1177.6461	-112.98919	1065.56633	-1153.02658	-113.43525	954.81537	-1178.73657	-150.15934	814.51103	-1161.69746	-172.93245	768.61366	-1118.03764	258.18384	935.61172	-1045.68748	-20.68997	931.24878	-1027.20795	182.13451	993.11859	-1206.81183	7.73944	982.21573	-1202.98531	231.17933	676.09993	-1261.71089	226.5633	491.56792	-1234.00925	-116.97573	812.53258	-1095.186	214.51094	300.03996	-1298.99841	199.07402	140.31998	-1402.91763	155.02925	107.01517	-1476.30844	177.29931	76.10388	-1285.59937	-30.98626	656.0939	-1083.29651	-2.9118	563.45074	-905.69298	43.73124	393.66711	-832.44888	-1.42075	147.46463	-769.87595	17.93702	145.41965	-638.61217	46.63444	57.33984	-811.09695
72	3.367	191.33783	1609.15878	-932.71347	57.78748	1607.02576	-936.22955	190.48521	1588.87115	-1065.80559	63.07243	1585.60562	-1063.08243	199.17154	1351.66931	-962.58797	59.88062	1346.68533	-969.01215	200.90061	1403.62564	-1081.27213	51.66809	1407.14371	-1079.66011	128.50201	1250.5468	-1146.1441	124.58987	1275.81642	-915.25841	121.49279	1188.07236	-876.71608	316.59527	1383.02902	-1025.13588	376.22074	1175.00053	-996.29326	376.70036	1061.85623	-984.1217	404.97616	995.85754	-889.67079	344.29901	942.06589	-747.11212	411.38145	910.75249	-767.62505	407.81288	918.26424	-705.09338	-42.41718	1376.47537	-1040.10437	-71.32461	1158.91602	-1127.46887	-117.42697	1057.91458	-1102.21893	-117.65585	948.35709	-1129.71375	-154.46712	808.22128	-1115.70107	-176.22009	760.60005	-1073.49037	255.60457	930.02251	-993.17719	-23.34766	928.14323	-973.42697	177.70243	987.47391	-1153.65898	4.23093	980.98694	-1148.81454	226.07555	677.13165	-1213.3609	228.9913	491.80248	-1193.33496	-120.16328	804.19418	-1049.34837	216.52834	303.49983	-1272.12372	204.91264	153.19309	-1389.75983	163.4461	127.49477	-1466.875	178.89315	74.53017	-1281.04477	-37.98642	660.08934	-1024.74335	-12.07445	571.44249	-848.56895	37.3264	391.89526	-770.52826	-2.21021	138.4637	-723.27652	10.73476	132.93395	-590.99586	49.84738	53.89781	-763.95729
73	3.4	188.05307	1608.46741	-885.63713	54.4806	1607.59964	-888.52112	186.54966	1588.53378	-1018.72055	59.13954	1586.52252	-1015.56267	194.52478	1353.92258	-914.00711	55.22786	1348.19733	-919.4313	194.42102	1402.19666	-1033.21945	45.51134	1405.28961	-1030.95764	122.78097	1247.81311	-1095.08827	120.20385	1279.24599	-864.03625	117.9342	1192.12662	-823.85117	311.23562	1382.80899	-979.03938	370.50968	1173.87596	-955.03967	371.50944	1061.55746	-943.61412	400.98728	998.03642	-846.86188	340.47302	947.87193	-702.33208	408.19851	916.61293	-722.12357	404.75666	927.27623	-660.02312	-48.05487	1375.15274	-989.85092	-77.59925	1156.74728	-1073.41049	-122.10616	1055.71396	-1046.98196	-122.08927	946.77582	-1075.36743	-158.38196	806.78154	-1062.59682	-177.2226	756.57814	-1021.81351	251.66525	929.07951	-934.786	-28.9908	931.8013	-914.47128	175.80059	986.20628	-1095.11902	3.09347	981.93428	-1089.8098	220.58102	677.38441	-1158.02917	226.85253	491.1079	-1137.91992	-121.72484	801.21506	-997.79457	218.38116	308.53189	-1234.74426	212.37549	171.16817	-1367.68585	174.0517	155.57152	-1447.78107	180.6922	71.77322	-1272.84256	-41.2767	663.68134	-964.74899	-11.98393	574.50447	-789.20898	38.348	380.35259	-725.18898	-1.22502	123.57197	-705.9082	14.1411	103.90426	-577.7309	50.35403	42.14636	-756.86234
74	3.433	184.09918	1610.3923	-838.12119	50.33871	1611.10031	-840.19859	181.18027	1589.96384	-971.26312	53.70705	1589.57611	-967.17194	188.10015	1359.68521	-863.61031	48.67759	1353.56552	-866.19141	185.76244	1403.4375	-984.15527	37.65799	1405.82321	-979.27048	114.66928	1246.75522	-1039.72473	115.01095	1287.47833	-809.17175	113.98855	1201.47018	-766.39771	303.74422	1386.2233	-932.27707	363.38375	1177.05803	-914.5018	363.95287	1065.08461	-906.43448	395.46635	999.68842	-810.16869	337.41657	948.02841	-665.20493	404.54216	917.0385	-686.75148	402.41138	927.55798	-624.07677	-55.04041	1377.38434	-936.17599	-83.23879	1159.37096	-1016.19476	-126.95678	1057.97089	-989.15474	-126.29687	948.83644	-1016.47591	-161.38607	808.85864	-1002.60277	-176.90928	756.66321	-962.65053	249.22279	930.58113	-875.10353	-30.9756	934.87236	-848.50822	169.04076	989.10835	-1033.00552	-3.6527	984.82246	-1023.60985	214.68769	672.80663	-1093.7323	225.07597	485.27699	-1067.68936	-122.3052	803.05634	-939.4593	219.63436	312.02999	-1185.93742	216.20644	192.73136	-1335.73837	176.90474	190.33293	-1414.93286	180.25843	66.74666	-1264.48463	-44.35263	658.18047	-911.08749	-8.39757	558.3979	-746.33308	45.17712	365.58926	-695.9584	4.43257	106.77898	-700.8094	19.99567	75.60483	-572.30698	49.82976	41.29378	-753.29826
75	3.467	179.4178	1615.3302	-790.53795	45.74592	1616.96991	-791.50925	174.98066	1592.34375	-923.09189	47.60811	1592.9483	-917.957	182.51684	1367.55951	-811.19164	43.45753	1359.2836	-810.35057	175.82127	1405.42908	-933.00537	28.32263	1407.4382	-924.44016	104.55154	1247.40387	-982.94434	111.31536	1295.84641	-752.47231	112.33944	1210.63492	-707.84912	295.77772	1389.94873	-885.39589	355.99846	1181.24794	-874.1404	355.09445	1069.00276	-869.99863	389.20322	998.69919	-776.98433	334.66709	941.56723	-632.52079	400.97069	910.29991	-657.91199	400.56534	917.95593	-594.44546	-62.49869	1380.32898	-877.75383	-88.32131	1163.38943	-956.28807	-131.76886	1060.4837	-927.37862	-131.22428	951.00914	-953.36929	-164.32705	810.61462	-937.78793	-176.91221	757.83142	-897.71446	247.15717	932.49252	-819.13635	-26.93488	936.28479	-789.18953	163.63686	991.19698	-975.77942	-8.80729	995.73845	-963.53294	208.53281	657.34161	-1019.16412	222.22458	471.44806	-980.04776	-122.94178	805.76988	-876.37016	220.22026	314.40287	-1122.61314	217.99511	218.64035	-1287.23495	181.00815	236.44869	-1363.36121	178.51749	70.69242	-1255.1915	-49.01694	667.76352	-866.54129	-4.16827	555.67673	-706.37703	53.46989	364.25709	-669.0506	6.7751	111.04357	-674.60701	34.12054	65.48232	-551.79638	50.84382	46.06777	-746.47484
76	3.5	174.43754	1620.5928	-742.50198	40.59455	1622.22076	-742.77779	168.91447	1591.50192	-874.03183	41.53594	1592.6091	-868.08426	178.04283	1370.6929	-756.34903	39.34164	1361.54587	-752.74567	167.91264	1409.86069	-876.68839	20.88987	1410.43625	-865.69633	96.55493	1251.60233	-927.42844	108.81155	1298.62122	-696.60606	111.03992	1212.65968	-652.96204	289.43686	1393.65036	-832.43378	347.1138	1184.47327	-833.37067	345.38071	1072.32262	-833.30154	382.57328	994.95071	-746.37108	332.17903	927.96158	-604.394	396.63483	897.425	-634.57977	398.69843	899.68826	-570.56683	-68.57001	1382.78656	-817.06161	-98.38864	1164.83376	-891.77071	-137.68788	1061.61987	-861.17401	-136.7375	951.88225	-887.03285	-167.06577	810.74188	-867.87949	-178.29754	759.4381	-826.25137	242.15164	931.53702	-765.67398	-32.03269	946.97433	-740.53368	168.26874	989.66476	-925.57411	-3.85348	1004.84299	-915.41451	202.16862	631.98444	-936.35239	214.59454	454.15688	-878.2811	-123.73141	807.79724	-808.07785	214.82388	316.80309	-1039.08386	216.93308	252.11409	-1218.67538	181.36583	285.67219	-1288.99994	181.33167	98.36676	-1221.08971	-59.16614	683.7085	-812.99362	4.63181	567.92194	-659.72229	55.16142	363.78784	-644.59099	7.25317	108.66477	-670.9903	32.60559	62.99645	-552.83314	50.76741	48.70255	-744.25919
77	3.533	169.50008	1626.59378	-693.1562	35.63147	1627.48901	-692.77634	163.38589	1591.59149	-823.41194	36.05564	1592.47406	-816.74095	175.20948	1370.54367	-701.08955	35.94872	1360.90485	-694.34395	163.22309	1416.67404	-820.5938	15.73389	1415.11581	-805.66872	91.33482	1258.82561	-874.23805	107.02676	1295.86426	-642.9184	109.73998	1208.36899	-602.59663	285.90397	1397.97272	-777.13127	340.39757	1187.23335	-788.40714	335.67177	1075.47989	-794.69475	375.62355	989.31984	-717.54387	329.11171	908.14903	-581.5387	391.1784	879.69124	-617.46033	396.30173	874.89464	-553.97213	-73.019	1384.93057	-755.40489	-110.0759	1163.74855	-825.98289	-143.63321	1061.08215	-792.22343	-142.57774	951.37566	-817.04536	-169.74682	810.31212	-792.70645	-179.99449	762.18361	-747.51587	237.34062	930.05348	-716.42044	-39.04555	955.22614	-693.93333	172.68661	985.75607	-879.9855	-2.43476	1008.13858	-870.22964	194.52995	617.22244	-853.37479	207.44047	448.3836	-771.31561	-123.33172	809.65477	-734.8513	206.59437	324.90543	-941.2603	211.39566	281.24628	-1126.7527	174.36405	320.20863	-1194.34738	183.12876	130.45247	-1140.00572	-61.71097	684.54666	-774.29649	-3.5485	565.49896	-635.50983	53.25257	361.67755	-627.24689	6.85095	107.67442	-669.3573	33.04934	63.01184	-552.59426	49.2768	49.6452	-743.57185
78	3.567	165.51807	1633.85971	-641.86974	31.58943	1633.32153	-640.90775	159.0748	1596.7244	-771.64894	31.7641	1596.4212	-764.30649	174.79992	1372.9657	-648.80318	35.16833	1362.60117	-639.24007	160.22043	1424.52652	-767.70676	12.19419	1421.6626	-749.3261	87.17564	1267.25777	-822.9232	107.29297	1295.77133	-592.21725	110.65702	1208.28781	-552.51781	283.73781	1404.27338	-725.89882	336.33652	1192.67204	-742.11342	328.45093	1080.45517	-751.25122	368.04787	985.02747	-689.92805	325.03387	885.63126	-565.72617	384.05678	861.24847	-608.66806	392.64908	847.20047	-547.20257	-75.17191	1389.37531	-696.1982	-117.7948	1165.10651	-762.45544	-147.95062	1063.22418	-722.55478	-147.36697	952.81425	-744.17068	-172.05132	812.98233	-712.84981	-179.89471	768.49579	-663.31871	236.26734	935.84908	-671.56822	-40.3676	961.0434	-646.19064	168.22128	992.25769	-834.56093	-7.56806	1013.85941	-821.69464	187.44375	614.99516	-772.54402	203.91382	459.85222	-666.6375	-121.25961	814.617	-657.87567	201.84914	336.51798	-834.85893	204.43485	294.01676	-1020.82634	167.08803	331.49292	-1089.81613	177.59726	144.1344	-1029.11591	-62.4282	691.94168	-747.7211	-5.31759	556.39431	-615.07225	50.3767	358.98754	-617.41798	6.22338	106.69904	-666.3472	32.94896	62.56885	-552.35363	48.92783	49.32787	-744.27399
79	3.6	163.08926	1641.52924	-589.16786	29.25123	1639.64584	-587.48188	156.27726	1606.03516	-719.25072	29.06171	1604.32938	-711.35086	175.34065	1380.97015	-599.73114	36.52723	1370.42618	-587.82398	157.42882	1432.65289	-717.70485	10.0485	1429.91013	-696.16409	82.48244	1276.08887	-772.15324	109.1151	1303.72894	-542.20558	113.83326	1216.25511	-502.58339	282.00623	1412.66281	-679.26514	333.20881	1200.58914	-697.04269	322.10335	1087.90489	-706.64139	361.20079	986.38565	-663.8623	319.94349	866.66695	-557.68482	377.21409	849.23637	-608.28125	386.18977	822.79099	-550.35736	-75.90343	1397.49115	-641.25969	-121.49375	1170.47203	-700.19455	-149.72557	1070.34683	-654.93164	-149.63603	958.57986	-670.41176	-173.167	821.12335	-630.79937	-176.8125	780.12093	-577.01496	234.82754	945.75897	-624.74682	-39.4921	963.65822	-598.03181	162.85063	1003.82614	-786.62521	-10.64971	1022.76901	-772.84889	186.7235	622.37469	-693.91541	201.88507	480.85838	-567.57305	-117.74224	825.17509	-578.95397	197.19549	345.03937	-725.21667	196.78722	288.67611	-908.04443	158.97217	318.20389	-981.97868	169.92783	142.35875	-894.74358	-63.21616	698.50494	-720.92239	-13.86778	558.58208	-598.96935	43.47774	357.73575	-609.83788	3.25402	106.61945	-669.08386	30.25204	62.3178	-553.16387	47.99538	49.05339	-745.09483
